HIERARCHY
ROOT Hips
{
	OFFSET 0.000000 0.000000 0.000000
	CHANNELS 6 Xposition Yposition Zposition Zrotation Yrotation Xrotation 
	JOINT LHipJoint
	{
		OFFSET 0.000000 0.000000 0.000000
		CHANNELS 3 Zrotation Yrotation Xrotation
		JOINT LeftUpLeg
		{
			OFFSET 1.363060 -1.794630 0.839290
			CHANNELS 3 Zrotation Yrotation Xrotation
			JOINT LeftLeg
			{
				OFFSET 2.448110 -6.726130 0.000000
				CHANNELS 3 Zrotation Yrotation Xrotation
				JOINT LeftFoot
				{
					OFFSET 2.562200 -7.039590 0.000000
					CHANNELS 3 Zrotation Yrotation Xrotation
					JOINT LeftToeBase
					{
						OFFSET 0.157640 -0.433110 2.322550
						CHANNELS 3 Zrotation Yrotation Xrotation
						End Site
						{
							OFFSET 0.000000 0.000000 0.000000
						}
					}
				}
			}
		}
	}
	JOINT RHipJoint
	{
		OFFSET 0.000000 0.000000 0.000000
		CHANNELS 3 Zrotation Yrotation Xrotation
		JOINT RightUpLeg
		{
			OFFSET -1.305520 -1.794630 0.839290
			CHANNELS 3 Zrotation Yrotation Xrotation
			JOINT RightLeg
			{
				OFFSET -2.542530 -6.985550 0.000000
				CHANNELS 3 Zrotation Yrotation Xrotation
				JOINT RightFoot
				{
					OFFSET -2.568260 -7.056230 0.000000
					CHANNELS 3 Zrotation Yrotation Xrotation
					JOINT RightToeBase
					{
						OFFSET -0.164730 -0.452590 2.363150
						CHANNELS 3 Zrotation Yrotation Xrotation
						End Site
						{
							OFFSET 0.000000 0.000000 0.000000
						}
					}
				}
			}
		}
	}
	JOINT LowerBack
	{
		OFFSET 0.000000 0.000000 0.000000
		CHANNELS 3 Zrotation Yrotation Xrotation
		JOINT Spine
		{
			OFFSET 0.028270 2.035590 -0.193380
			CHANNELS 3 Zrotation Yrotation Xrotation
			JOINT Spine1
			{
				OFFSET 0.056720 2.048850 -0.042750
				CHANNELS 3 Zrotation Yrotation Xrotation
				JOINT Neck
				{
					OFFSET 0.000000 0.000000 0.000000
					CHANNELS 3 Zrotation Yrotation Xrotation
					JOINT Neck1
					{
						OFFSET -0.054170 1.746240 0.172020
						CHANNELS 3 Zrotation Yrotation Xrotation
						JOINT Head
						{
							OFFSET 0.104070 1.761360 -0.123970
							CHANNELS 3 Zrotation Yrotation Xrotation
							End Site
							{
								OFFSET 0.000000 0.000000 0.000000
							}
						}
					}
				}
				JOINT LeftShoulder
				{
					OFFSET 0.000000 0.000000 0.000000
					CHANNELS 3 Zrotation Yrotation Xrotation
					JOINT LeftArm
					{
						OFFSET 3.362410 1.200890 -0.311210
						CHANNELS 3 Zrotation Yrotation Xrotation
						JOINT LeftForeArm
						{
							OFFSET 4.983000 -0.000000 -0.000000
							CHANNELS 3 Zrotation Yrotation Xrotation
							JOINT LeftHand
							{
								OFFSET 3.483560 -0.000000 -0.000000
								CHANNELS 3 Zrotation Yrotation Xrotation
								JOINT LeftFingerBase
								{
									OFFSET 0.000000 0.000000 0.000000
									CHANNELS 3 Zrotation Yrotation Xrotation
									JOINT LeftHandIndex1
									{
										OFFSET 0.715260 -0.000000 -0.000000
										CHANNELS 3 Zrotation Yrotation Xrotation
										End Site
										{
											OFFSET 0.000000 0.000000 0.000000
										}
									}
								}
								JOINT LThumb
								{
									OFFSET 0.000000 0.000000 0.000000
									CHANNELS 3 Zrotation Yrotation Xrotation
									End Site
									{
										OFFSET 0.000000 0.000000 0.000000
									}
								}
							}
						}
					}
				}
				JOINT RightShoulder
				{
					OFFSET 0.000000 0.000000 0.000000
					CHANNELS 3 Zrotation Yrotation Xrotation
					JOINT RightArm
					{
						OFFSET -3.136600 1.374050 -0.404650
						CHANNELS 3 Zrotation Yrotation Xrotation
						JOINT RightForeArm
						{
							OFFSET -5.241900 -0.000000 -0.000000
							CHANNELS 3 Zrotation Yrotation Xrotation
							JOINT RightHand
							{
								OFFSET -3.444170 -0.000000 -0.000000
								CHANNELS 3 Zrotation Yrotation Xrotation
								JOINT RightFingerBase
								{
									OFFSET 0.000000 0.000000 0.000000
									CHANNELS 3 Zrotation Yrotation Xrotation
									JOINT RightHandIndex1
									{
										OFFSET -0.622530 -0.000000 -0.000000
										CHANNELS 3 Zrotation Yrotation Xrotation
										End Site
										{
											OFFSET 0.000000 0.000000 0.000000
										}
									}
								}
								JOINT RThumb
								{
									OFFSET 0.000000 0.000000 0.000000
									CHANNELS 3 Zrotation Yrotation Xrotation
									End Site
									{
										OFFSET 0.000000 0.000000 0.000000
									}
								}
							}
						}
					}
				}
			}
		}
	}
}
MOTION
Frames: 5
Frame Time: 0.008333
9.360443 18.022220 -37.797480 -1.281506 1.653381 5.074641 -3.903589 -3.622923 -0.401227 -10.192758 -0.837996 -0.733036 -1.007044 3.224721 6.123946 1.146392 -1.857025 6.918983 0.925700 6.129400 17.160400 0.145721 3.196303 -3.943636 22.919532 4.817403 8.718335 0.947369 -2.429479 3.072816 0.860134 -14.239670 -20.849167 -0.228600 -3.077800 8.495300 1.352973 1.349664 -2.527729 0.657590 1.391802 -5.933361 -2.810250 0.859835 1.682775 -3.457367 -3.348558 -7.142268 6.865764 -5.058544 10.586111 1.973400 -2.255600 2.262900 -0.505518 -8.648133 2.145326 -84.285452 3.196076 38.777518 12.520938 -17.493682 -1.989120 0.487941 0.256354 -5.744712 10.714194 -10.485282 -1.916400 -7.125000 0.000000 0.000000 -11.882900 19.218000 7.470800 0.502967 8.994529 2.535882 86.194012 -8.506610 27.749939 -17.148877 21.672105 -5.154697 1.459057 2.288994 2.126382 3.574494 -46.960022 -1.718700 7.125000 0.000000 0.000000 64.767800 -69.213800 -43.435500 
9.359546 18.023415 -37.799971 -1.204215 1.697233 5.058596 -3.912254 -3.632699 -0.402683 -10.292034 -0.900330 -0.755545 -1.009133 3.267266 6.236744 1.143685 -1.891118 6.687154 0.737000 5.484500 15.295800 0.162198 3.191804 -3.927378 22.796976 4.804054 8.657567 0.945869 -2.473144 3.193174 0.827704 -14.098789 -21.010543 -0.234100 -3.113700 8.595600 1.456905 1.558320 -2.505972 0.564806 1.648844 -6.050486 -2.983200 0.985246 1.433851 -3.663983 -3.627174 -6.263681 6.929975 -5.448459 10.239822 2.054800 -2.477700 2.012500 -0.531815 -8.672532 2.166016 -83.760520 3.468475 40.418209 12.720018 -17.741148 -2.027089 0.453266 0.234936 -6.101744 10.261762 -9.388413 -1.646200 -7.125000 0.000000 0.000000 -12.236700 20.348200 7.386200 0.471794 8.968337 2.520100 86.489907 -9.025990 27.185569 -17.228576 21.750285 -5.162998 1.476022 2.260171 2.105912 3.098441 -46.526481 -1.331800 7.125000 0.000000 0.000000 63.294600 -69.165200 -42.129500 
9.359645 18.024013 -37.799473 -1.155399 1.759357 5.051161 -3.908992 -3.645482 -0.412426 -10.365594 -0.900697 -0.737595 -1.010623 3.263096 6.226450 1.138490 -1.865426 6.692860 0.650500 5.159000 14.362700 0.169614 3.185743 -3.927503 22.736946 4.772492 8.682581 0.948322 -2.465503 3.167695 0.838466 -14.176242 -21.039891 -0.218100 -3.006300 8.296200 1.568391 1.784244 -2.759650 0.488645 1.923362 -6.002453 -3.114546 1.127132 1.667518 -4.269854 -3.754045 -5.916443 7.436591 -5.697624 10.196223 2.343100 -2.613000 1.985100 -0.547454 -8.719394 2.202564 -83.201514 3.418527 42.469873 12.731954 -17.759083 -2.042978 0.464553 0.268809 -8.374602 10.809027 -10.363866 -1.913700 -7.125000 0.000000 0.000000 -11.814300 19.342200 7.392300 0.452940 8.900709 2.498335 86.709301 -9.127106 26.469501 -17.234676 21.758162 -5.161565 1.487456 2.246357 2.186800 2.850680 -46.420834 -1.135800 7.125000 0.000000 0.000000 62.816900 -69.193800 -41.763000 
9.359048 18.023814 -37.799273 -1.168276 1.754734 5.046565 -3.908369 -3.646524 -0.409697 -10.347096 -0.911763 -0.726200 -1.010141 3.257126 6.216113 1.140088 -1.873060 6.711873 0.708300 5.379100 14.993000 0.170423 3.179780 -3.921047 22.739702 4.747770 8.653425 0.947228 -2.471727 3.181896 0.833931 -14.144246 -21.029809 -0.215600 -2.989300 8.249100 1.700901 1.963624 -2.721510 0.454791 2.144020 -6.070905 -3.194439 1.236476 1.512791 -4.418650 -4.124932 -5.332659 7.295511 -6.168491 9.756107 2.348400 -2.874800 1.763700 -0.565073 -8.733190 2.205965 -82.939254 3.315961 43.667546 12.761162 -17.787950 -2.035735 0.444640 0.246423 -8.803449 10.185414 -9.673585 -1.679300 -7.125000 0.000000 0.000000 -12.275400 20.078500 7.486900 0.437640 8.894004 2.490171 86.830767 -9.400472 25.911356 -17.197432 21.711346 -5.139302 1.491609 2.235757 2.429441 2.993923 -46.240871 -1.243600 7.125000 0.000000 0.000000 62.509100 -69.059200 -41.345300 
9.358549 18.024013 -37.799473 -1.139364 1.763988 5.040400 -3.910872 -3.649892 -0.410707 -10.384266 -0.931780 -0.720212 -1.011145 3.261888 6.227546 1.138099 -1.870129 6.676833 0.683900 5.287400 14.730200 0.173637 3.177974 -3.918083 22.696870 4.729187 8.647061 0.946814 -2.474904 3.190830 0.830587 -14.129976 -21.047443 -0.213400 -2.974000 8.206500 1.744572 2.054322 -2.759453 0.438034 2.255450 -6.094874 -3.217546 1.292672 1.487662 -4.584137 -4.365062 -4.936976 7.236927 -6.480233 9.479672 2.378400 -3.047600 1.624000 -0.575372 -8.745053 2.209078 -82.829097 3.253222 44.382073 12.744597 -17.761811 -2.027079 0.438783 0.244796 -9.324882 10.060969 -9.581895 -1.641900 -7.125000 0.000000 0.000000 -12.365600 20.179400 7.515800 0.428816 8.883255 2.485680 86.874911 -9.528897 25.553086 -17.173669 21.678894 -5.121107 1.496533 2.224885 2.716587 3.143119 -46.057635 -1.355800 7.125000 0.000000 0.000000 62.206300 -68.920400 -40.928100 
